<?xml version="1.0" encoding="UTF-8"?>
<svg version="1.1" viewBox="0 0 55 55" xmlns="http://www.w3.org/2000/svg"><!-- Generator: Sketch 50.2 (55047) - http://www.bohemiancoding.com/sketch --><g fill="none" fill-rule="evenodd"><g transform="translate(-100 -1396)"><g transform="translate(100 1396)"><g fill-rule="nonzero"><path d="m54.177 34.153c-3.6734 14.732-18.596 23.698-33.332 20.024-14.73-3.6729-23.696-18.595-20.021-33.326 3.6716-14.734 18.595-23.7 33.326-20.028 14.735 3.6729 23.701 18.597 20.027 33.33z" fill="#FFB458"/><path d="m38.929 25.071c0.5618-3.6777-2.2975-5.6547-6.2072-6.9736l1.2682-4.9819-3.0965-0.75574-1.2347 4.8506c-0.81404-0.19865-1.6501-0.38608-2.4809-0.57177l1.2435-4.8825-3.0948-0.75574-1.2691 4.9801c-0.67381-0.15028-1.3353-0.29884-1.9773-0.45517l0.0035278-0.015547-4.2704-1.0442-0.82374 3.2389s2.2975 0.51563 2.249 0.54759c1.2541 0.30662 1.4808 1.1194 1.4429 1.7637l-1.4446 5.6754c0.086431 0.021593 0.19844 0.052686 0.32191 0.10105-0.10319-0.025048-0.21343-0.052686-0.3272-0.079461l-2.025 7.9504c-0.15346 0.37312-0.5424 0.9328-1.4191 0.72033 0.030868 0.044049-2.2507-0.55018-2.2507-0.55018l-1.5372 3.4712 4.0296 0.98376c0.74966 0.18397 1.4843 0.37658 2.2075 0.55795l-1.2815 5.0389 3.093 0.75574 1.2691-4.9853c0.84491 0.22456 1.6651 0.43185 2.4677 0.62705l-1.2647 4.962 3.0965 0.75574 1.2815-5.0294c5.2802 0.97858 9.2508 0.58387 10.922-4.0931 1.3467-3.7658-0.067028-5.938-2.8452-7.3545 2.0232-0.4569 3.5472-1.7602 3.9538-4.4524zm-7.075 9.7158c-0.95691 3.7658-7.4313 1.73-9.5303 1.2196l1.7004-6.6756c2.099 0.51304 8.8301 1.5288 7.8299 5.456zm0.9578-9.7703c-0.87313 3.4255-6.2618 1.6851-8.0099 1.2584l1.5416-6.0546c1.748 0.42667 7.3775 1.223 6.4682 4.7962z" fill="#fff"/></g></g></g></g></svg>
